<?xml version="1.0" encoding="iso-8859-1"?>
<!-- Uploaded to: SVG Repo, www.svgrepo.com, Generator: SVG Repo Mixer Tools -->
<svg version="1.1" id="Layer_1" xmlns="http://www.w3.org/2000/svg" xmlns:xlink="http://www.w3.org/1999/xlink" 
	 viewBox="0 0 511.999 511.999" xml:space="preserve">
<rect x="47.785" y="38.24" style="fill:#FF757C;" width="416.433" height="70.395"/>
<polygon style="fill:#FBB429;" points="233.545,330.575 278.454,330.575 282.058,473.76 501.8,473.76 464.214,108.639 
	47.785,108.639 10.199,473.76 229.942,473.76 "/>
<g>
	<path style="fill:#603813;" d="M268.508,340.774l3.353,133.242c0.14,5.531,4.663,9.942,10.196,9.942H501.8
		c2.886,0,5.638-1.223,7.572-3.367c1.934-2.144,2.869-5.006,2.573-7.878l-37.532-364.599V38.24c0-5.632-4.567-10.199-10.199-10.199
		H47.785c-5.633,0-10.199,4.567-10.199,10.199v69.876L0.054,472.714c-0.296,2.871,0.639,5.734,2.573,7.878s4.686,3.367,7.572,3.367
		h219.743c5.533,0,10.056-4.411,10.196-9.942l3.352-133.242L268.508,340.774L268.508,340.774z M57.984,48.439h396.031v50H57.984
		V48.439z M292.004,463.561l-3.354-133.242c-0.14-5.531-4.663-9.942-10.196-9.942h-14.512l-21.606-46.923v-64.584
		c0-5.632-4.566-10.199-10.199-10.199s-10.199,4.567-10.199,10.199v66.82c0,1.473,0.319,2.928,0.935,4.266l18.613,40.423h-7.939
		c-5.533,0-10.056,4.411-10.196,9.942l-3.353,133.242H21.502l35.486-344.723h398.024l35.486,344.723H292.004V463.561z"/>
	<path style="fill:#603813;" d="M232.136,164.065c-5.633,0-10.199,4.567-10.199,10.199v4.773c0,5.632,4.566,10.199,10.199,10.199
		c5.633,0,10.199-4.567,10.199-10.199v-4.773C242.335,168.632,237.769,164.065,232.136,164.065z"/>
</g>
</svg>